# xmcd
#
# Track frame offsets:
#	150
#	12058
#	23871
#	34521
#	46521
#	57121
#	71101
#	81278
#	93971
#	106121
#
# Disc length: 1551 seconds
#
# Revision: 1
# Processed by: cddbd v1.5.2PL0 Copyright (c) Steve Scherf et al.
# Submitted via: audiograbber 1.83.01
#
DISCID=6a060d0a
DTITLE=Archie Bell and The Drells - Tighten Up
DYEAR=2006
DGENRE=Oldies
TTITLE0=Tighten Up
TTITLE1=(There's Gonns Be A) Showdown
TTITLE2=I Can't Stop Dancin
TTITLE3=Do The Choo Choo
TTITLE4=Girl You're Too Young
TTITLE5=Love Will Rain On You
TTITLE6=Don't Let The Music Slip Away
TTITLE7=Wrap It Up
TTITLE8=I Love My Baby
TTITLE9=A World Without Music
EXTD=
EXTT0=
EXTT1=
EXTT2=
EXTT3=
EXTT4=
EXTT5=
EXTT6=
EXTT7=
EXTT8=
EXTT9=
PLAYORDER=
